<?xml version="1.0" encoding="UTF-8" standalone="no"?>
<!-- Created with Inkscape (http://www.inkscape.org/) -->

<svg
   width="38pt"
   height="38pt"
   viewBox="0 0 13.405556 13.405556"
   version="1.1"
   id="svg102"
   inkscape:version="1.1 (c68e22c387, 2021-05-23)"
   sodipodi:docname="logo.svg"
   inkscape:export-filename="D:\Projects\Other projects\GitHub Home Repository\pictures\div_games_studio\div2_icon.png"
   inkscape:export-xdpi="6.6782608"
   inkscape:export-ydpi="6.6782608"
   xmlns:inkscape="http://www.inkscape.org/namespaces/inkscape"
   xmlns:sodipodi="http://sodipodi.sourceforge.net/DTD/sodipodi-0.dtd"
   xmlns="http://www.w3.org/2000/svg"
   xmlns:svg="http://www.w3.org/2000/svg"
   xmlns:rdf="http://www.w3.org/1999/02/22-rdf-syntax-ns#"
   xmlns:cc="http://creativecommons.org/ns#"
   xmlns:dc="http://purl.org/dc/elements/1.1/">
  <title
     id="title74101">DIV Games Studio 2 icon</title>
  <sodipodi:namedview
     id="namedview104"
     pagecolor="#505050"
     bordercolor="#eeeeee"
     borderopacity="1"
     inkscape:pageshadow="0"
     inkscape:pageopacity="0"
     inkscape:pagecheckerboard="0"
     inkscape:document-units="mm"
     showgrid="true"
     width="211mm"
     units="pt"
     inkscape:zoom="3.1743648"
     inkscape:cx="1.1025828"
     inkscape:cy="48.041107"
     inkscape:window-width="1920"
     inkscape:window-height="1017"
     inkscape:window-x="-8"
     inkscape:window-y="-8"
     inkscape:window-maximized="1"
     inkscape:current-layer="layer1">
    <inkscape:grid
       type="xygrid"
       id="grid74077" />
  </sodipodi:namedview>
  <defs
     id="defs99">
    <rect
       x="-106.5854"
       y="254.99545"
       width="628.71893"
       height="272.53482"
       id="rect8261" />
    <rect
       x="-106.5854"
       y="254.99545"
       width="628.71893"
       height="272.53482"
       id="rect16205" />
  </defs>
  <g
     inkscape:label="Layer 1"
     inkscape:groupmode="layer"
     id="layer1">
    <g
       id="Yellow_Gear"
       transform="matrix(0.05341735,0,0,0.05338329,0.19831168,0.15641813)">
      <path
         d="m 137.57174,174.97818 7.8952,-1.23825 v -14.72671 l -7.8952,-1.23825 c -6.4982,-1.09538 -8.78157,-9.70227 -3.70154,-13.8774 l 5.95845,-4.90802 -7.33165,-12.69471 -7.29196,2.7305 c -6.17276,2.31246 -12.43548,-3.94229 -10.12037,-10.12031 l 2.73052,-7.29192 -12.69478,-7.3316 -4.90805,5.95842 c -4.167197,5.06941 -12.779384,2.80723 -13.877404,-3.70152 l -1.23825,-7.895165 H 70.369997 l -1.23825,7.895165 c -1.103312,6.49816 -9.70227,8.78152 -13.877395,3.70152 l -4.908023,-5.95842 -12.694715,7.3316 2.730501,7.29192 c 2.31246,6.17273 -3.942294,12.43542 -10.120317,10.12031 l -7.291916,-2.7305 -7.331604,12.69471 5.958416,4.90802 c 5.058834,4.16454 2.823104,12.77673 -3.70152,13.8774 l -7.895167,1.23825 v 14.72671 l 7.895167,1.23825 c 6.471708,1.09802 8.800041,9.6811 3.70152,13.87739 l -5.958416,4.90802 7.331604,12.69471 7.291916,-2.7305 c 6.143627,-2.30187 12.446006,3.91848 10.120317,10.12031 l -2.730501,7.29192 12.694715,7.3316 4.908023,-5.95841 c 4.161896,-5.05619 12.771437,-2.82311 13.877395,3.70152 l 1.23825,7.89516 h 14.726709 l 1.23825,-7.89516 c 1.090083,-6.45583 9.67317,-8.81063 13.877404,-3.70152 l 4.90805,5.95841 12.69478,-7.3316 -2.73052,-7.29192 c -2.30189,-6.14362 3.9185,-12.446 10.12037,-10.12031 l 7.29196,2.7305 7.33165,-12.69471 -5.95845,-4.90802 c -5.06945,-4.16983 -2.80725,-12.77408 3.70154,-13.87739 z m -59.838389,24.47131 c -18.237728,0 -33.072921,-14.83519 -33.072921,-33.07292 0,-18.23773 14.835193,-33.07291 33.072921,-33.07291 18.237725,0 33.072989,14.83518 33.072989,33.07291 0,18.23773 -14.835264,33.07292 -33.072989,33.07292 z"
         fill="#7ed8f6"
         id="path189"
         style="fill:#ffcc00;stroke-width:0.264583" />
      <path
         d="m 133.8702,188.85557 5.95845,4.90802 -7.33165,12.69471 -7.29196,-2.7305 c -6.20187,-2.32569 -12.42226,3.97669 -10.12037,10.12031 l 2.73052,7.29192 -12.69478,7.3316 -4.90805,-5.95841 c -4.204234,-5.10911 -12.787321,-2.75431 -13.877404,3.70152 l -1.23825,7.89516 h -7.363355 v -34.66041 c 18.237725,0 33.072989,-14.83519 33.072989,-33.07292 0,-18.23773 -14.835264,-33.07291 -33.072989,-33.07291 V 98.643245 h 7.363355 l 1.23825,7.895165 c 1.09802,6.50875 9.710207,8.77093 13.877404,3.70152 l 4.90805,-5.95842 12.69478,7.3316 -2.73052,7.29192 c -2.31511,6.17802 3.94761,12.43277 10.12037,10.12031 l 7.29196,-2.7305 7.33165,12.69471 -5.95845,4.90802 c -5.08003,4.17513 -2.79666,12.78202 3.70154,13.8774 l 7.8952,1.23825 v 14.72671 l -7.8952,1.23825 c -6.50879,1.10331 -8.77099,9.70756 -3.70154,13.87739 z"
         fill="#6aa9ff"
         id="path191"
         style="fill:#aa8800;stroke-width:0.264583" />
      <path
         d="m 77.733351,130.65782 c -19.695583,0 -35.718756,16.02317 -35.718756,35.71875 0,19.69559 16.023173,35.71875 35.718756,35.71875 19.695586,0 35.718829,-16.02316 35.718829,-35.71875 0,-19.69558 -16.023243,-35.71875 -35.718829,-35.71875 z m 0,55.5625 c -10.94052,0 -19.843749,-8.90058 -19.843749,-19.84375 0,-10.94316 8.903229,-19.84375 19.843749,-19.84375 10.940521,0 19.843746,8.90059 19.843746,19.84375 0,10.94317 -8.903225,19.84375 -19.843746,19.84375 z"
         fill="#6aa9ff"
         id="path193"
         style="fill:#aa8800;stroke-width:0.264583" />
      <path
         d="m 113.45218,166.37657 c 0,19.69559 -16.023243,35.71875 -35.718829,35.71875 v -15.875 c 10.940521,0 19.843746,-8.90058 19.843746,-19.84375 0,-10.94316 -8.903225,-19.84375 -19.843746,-19.84375 v -15.875 c 19.695586,0 35.718829,16.02317 35.718829,35.71875 z"
         fill="#4895ff"
         id="path195"
         style="fill:#806600;stroke-width:0.264583" />
    </g>
    <g
       id="Blue_Gear"
       transform="matrix(0.05341735,0,0,0.05338329,0.19831168,0.1472257)">
      <path
         d="m 226.64693,175.15038 7.89516,-1.23825 v -14.72671 l -7.89516,-1.23825 c -6.49817,-1.09538 -8.78152,-9.70227 -3.70152,-13.8774 l 5.95841,-4.90802 -7.3316,-12.69471 -7.29192,2.7305 c -6.17273,2.31246 -12.43541,-3.94229 -10.12031,-10.12031 l 2.7305,-7.29192 -12.69471,-7.3316 -4.90802,5.95842 c -4.16719,5.06941 -12.77937,2.80723 -13.87739,-3.70152 l -1.23825,-7.895168 h -14.72671 l -1.23825,7.895168 c -1.10332,6.49816 -9.70227,8.78152 -13.8774,3.70152 l -4.90804,-5.95842 -12.69478,7.3316 2.73051,7.29192 c 2.31247,6.17273 -3.94231,12.43542 -10.12037,10.12031 l -7.29195,-2.7305 -7.33165,12.69471 5.95845,4.90802 c 5.05886,4.16454 2.82312,12.77673 -3.70154,13.8774 l -7.895212,1.23825 v 14.72671 l 7.895212,1.23825 c 6.47174,1.09802 8.80009,9.6811 3.70154,13.87739 l -5.95845,4.90802 7.33165,12.69471 7.29195,-2.7305 c 6.14366,-2.30187 12.44607,3.91848 10.12037,10.12031 l -2.73051,7.29192 12.69478,7.3316 4.90804,-5.95841 c 4.1619,-5.05619 12.77144,-2.82311 13.8774,3.70152 l 1.23825,7.89516 h 14.72671 l 1.23825,-7.89516 c 1.09008,-6.45583 9.67316,-8.81063 13.87739,-3.70152 l 4.90802,5.95841 12.69471,-7.3316 -2.7305,-7.29192 c -2.30187,-6.14362 3.91848,-12.446 10.12031,-10.12031 l 7.29192,2.7305 7.3316,-12.69471 -5.95841,-4.90802 c -5.06942,-4.16983 -2.80723,-12.77408 3.70152,-13.87739 z m -59.83817,24.47131 c -18.23773,0 -33.07297,-14.83519 -33.07297,-33.07292 0,-18.23773 14.83524,-33.07291 33.07297,-33.07291 18.23773,0 33.07292,14.83518 33.07292,33.07291 0,18.23773 -14.83519,33.07292 -33.07292,33.07292 z"
         fill="#7ed8f6"
         id="path189-6"
         style="fill:#0066ff;stroke-width:0.264583" />
      <path
         d="m 222.94541,189.02777 5.95841,4.90802 -7.3316,12.69471 -7.29192,-2.7305 c -6.20183,-2.32569 -12.42218,3.97669 -10.12031,10.12031 l 2.7305,7.29192 -12.69471,7.3316 -4.90802,-5.95841 c -4.20423,-5.10911 -12.78731,-2.75431 -13.87739,3.70152 l -1.23825,7.89516 h -7.36336 v -34.66041 c 18.23773,0 33.07292,-14.83519 33.07292,-33.07292 0,-18.23773 -14.83519,-33.07291 -33.07292,-33.07291 V 98.815442 h 7.36336 l 1.23825,7.895168 c 1.09802,6.50875 9.7102,8.77093 13.87739,3.70152 l 4.90802,-5.95842 12.69471,7.3316 -2.7305,7.29192 c -2.3151,6.17802 3.94758,12.43277 10.12031,10.12031 l 7.29192,-2.7305 7.3316,12.69471 -5.95841,4.90802 c -5.08,4.17513 -2.79665,12.78202 3.70152,13.8774 l 7.89516,1.23825 v 14.72671 l -7.89516,1.23825 c -6.50875,1.10331 -8.77094,9.70756 -3.70152,13.87739 z"
         fill="#6aa9ff"
         id="path191-0"
         style="fill:#0044aa;stroke-width:0.264583" />
      <path
         d="m 166.80876,130.83002 c -19.69558,0 -35.71882,16.02317 -35.71882,35.71875 0,19.69559 16.02324,35.71875 35.71882,35.71875 19.69558,0 35.71875,-16.02316 35.71875,-35.71875 0,-19.69558 -16.02317,-35.71875 -35.71875,-35.71875 z m 0,55.5625 c -10.94052,0 -19.84375,-8.90058 -19.84375,-19.84375 0,-10.94316 8.90323,-19.84375 19.84375,-19.84375 10.94052,0 19.84375,8.90059 19.84375,19.84375 0,10.94317 -8.90323,19.84375 -19.84375,19.84375 z"
         fill="#6aa9ff"
         id="path193-4"
         style="fill:#0044aa;stroke-width:0.264583" />
      <path
         d="m 202.52751,166.54877 c 0,19.69559 -16.02317,35.71875 -35.71875,35.71875 v -15.875 c 10.94052,0 19.84375,-8.90058 19.84375,-19.84375 0,-10.94316 -8.90323,-19.84375 -19.84375,-19.84375 v -15.875 c 19.69558,0 35.71875,16.02317 35.71875,35.71875 z"
         fill="#4895ff"
         id="path195-2"
         style="fill:#003380;stroke-width:0.264583" />
    </g>
    <g
       id="g4584">
      <rect
         style="fill:#003380;stroke-width:0.0104565"
         id="rect1095"
         width="7.216958"
         height="4.6306796"
         x="5.5099573"
         y="0.65952873" />
      <rect
         style="fill:#0044aa;stroke-width:0.0110083"
         id="rect1199"
         width="7.998765"
         height="4.6306796"
         x="0.73248518"
         y="0.66098708" />
      <text
         xml:space="preserve"
         transform="matrix(0.01413334,0,0,0.01412433,2.8119146,-2.2501841)"
         id="text8259"
         style="font-style:normal;font-variant:normal;font-weight:bold;font-stretch:normal;font-size:299.624px;line-height:0;font-family:Arial;-inkscape-font-specification:'Arial Bold';letter-spacing:0px;white-space:pre;shape-inside:url(#rect8261);fill:#1a1a1a;fill-opacity:1;stroke:none"><tspan
           x="-106.58594"
           y="479.94013"
           id="tspan4615"><tspan
             style="line-height:0.95"
             id="tspan4613">DIV</tspan></tspan></text>
      <text
         xml:space="preserve"
         transform="matrix(0.01413334,0,0,0.01412433,10.991477,-2.2548303)"
         id="text16203"
         style="font-style:normal;font-variant:normal;font-weight:bold;font-stretch:normal;font-size:320px;line-height:0.85;font-family:Gadugi;-inkscape-font-specification:'Gadugi Bold';letter-spacing:35.99px;white-space:pre;shape-inside:url(#rect16205);fill:#d4aa00;fill-opacity:1;stroke:none"><tspan
           x="-106.58594"
           y="479.23751"
           id="tspan4617">2</tspan></text>
    </g>
  </g>
  <metadata
     id="metadata74099">
    <rdf:RDF>
      <cc:Work
         rdf:about="">
        <dc:title>DIV Games Studio 2 icon</dc:title>
        <cc:license
           rdf:resource="http://creativecommons.org/licenses/by/4.0/" />
        <dc:date>20/06/2021</dc:date>
        <dc:creator>
          <cc:Agent>
            <dc:title>José Miguel Sánchez Fernández</dc:title>
          </cc:Agent>
        </dc:creator>
        <dc:publisher>
          <cc:Agent>
            <dc:title>Visual Studio EX3</dc:title>
          </cc:Agent>
        </dc:publisher>
        <dc:contributor>
          <cc:Agent>
            <dc:title>Gear icons made by Freepik (https://www.freepik.com) from Flaticon (https://www.flaticon.com/)</dc:title>
          </cc:Agent>
        </dc:contributor>
        <dc:rights>
          <cc:Agent>
            <dc:title>Creative Commons Attribution 4.0 International License</dc:title>
          </cc:Agent>
        </dc:rights>
        <dc:description>DIV Games Studio 2 icon recreation.</dc:description>
      </cc:Work>
      <cc:License
         rdf:about="http://creativecommons.org/licenses/by/4.0/">
        <cc:permits
           rdf:resource="http://creativecommons.org/ns#Reproduction" />
        <cc:permits
           rdf:resource="http://creativecommons.org/ns#Distribution" />
        <cc:requires
           rdf:resource="http://creativecommons.org/ns#Notice" />
        <cc:requires
           rdf:resource="http://creativecommons.org/ns#Attribution" />
        <cc:permits
           rdf:resource="http://creativecommons.org/ns#DerivativeWorks" />
      </cc:License>
    </rdf:RDF>
  </metadata>
</svg>
